<?xml version="1.0" standalone="no"?>
<!DOCTYPE svg PUBLIC "-//W3C//DTD SVG 20010904//EN"
 "http://www.w3.org/TR/2001/REC-SVG-20010904/DTD/svg10.dtd">
<svg version="1.0" xmlns="http://www.w3.org/2000/svg"
 width="601.000000pt" height="601.000000pt" viewBox="0 0 601.000000 601.000000"
 preserveAspectRatio="xMidYMid meet">
<metadata>
Created by potrace 1.14, written by Peter Selinger 2001-2017
</metadata>
<g transform="translate(0.000000,601.000000) scale(0.100000,-0.100000)"
fill="#000000" stroke="none">
<path d="M3710 5999 c-151 -19 -252 -55 -357 -127 -190 -130 -330 -336 -394
-577 -28 -106 -34 -158 -33 -300 1 -200 46 -332 164 -480 123 -154 246 -238
583 -399 108 -52 223 -108 255 -126 173 -96 315 -221 394 -345 55 -86 78 -141
94 -225 2 -14 7 -32 10 -40 3 -8 5 -55 5 -105 0 -78 -5 -118 -25 -211 -7 -34
-56 -144 -83 -188 -42 -66 -133 -148 -203 -183 -85 -42 -145 -55 -253 -52 -93
2 -344 42 -360 58 -5 5 -5 17 2 29 10 19 78 218 86 252 2 8 13 53 24 100 71
302 32 512 -126 681 -50 53 -149 122 -225 157 -65 30 -203 69 -285 81 -66 10
-367 8 -409 -2 -12 -3 -39 -8 -60 -11 -163 -26 -436 -129 -543 -205 -16 -12
-32 -21 -36 -21 -3 0 -41 -26 -83 -59 -142 -107 -277 -262 -358 -406 -15 -27
-35 -64 -44 -80 -63 -112 -132 -346 -146 -492 -35 -370 57 -725 276 -1068 87
-137 84 -134 105 -88 165 351 250 487 390 629 142 143 321 240 503 274 32 6
71 13 87 16 95 17 357 5 535 -26 30 -5 71 -12 90 -15 19 -3 46 -7 60 -10 14
-3 39 -7 55 -10 17 -3 41 -7 55 -10 33 -6 139 -26 165 -30 11 -2 53 -9 94 -15
97 -16 240 -16 321 -1 357 68 620 374 666 776 9 81 10 176 2 230 -4 28 -10 67
-13 88 -45 297 -299 601 -660 790 -27 14 -147 73 -265 131 -118 57 -242 122
-275 144 -113 74 -192 157 -247 258 -83 153 -44 470 81 660 101 154 232 234
396 240 179 7 272 -67 311 -247 17 -79 23 -329 10 -428 -6 -49 -5 -53 10 -40
18 14 81 105 112 160 33 59 45 111 44 188 -2 57 2 79 15 93 21 24 39 23 57 -4
21 -30 20 -64 -4 -113 -25 -52 -25 -90 0 -115 39 -39 95 -12 125 62 26 62 29
207 6 280 -65 204 -280 414 -476 467 -54 14 -158 19 -225 10z m-678 -2298
c111 -29 185 -68 248 -131 103 -104 116 -210 55 -470 -11 -46 -57 -186 -84
-255 -17 -44 -31 -85 -31 -92 0 -7 -11 -10 -27 -7 -16 2 -41 6 -58 9 -57 9
-231 18 -320 18 -379 -2 -685 -125 -937 -375 -72 -72 -208 -241 -208 -260 0
-4 -4 -8 -8 -8 -14 0 -53 139 -68 238 -3 20 -7 48 -10 62 -8 48 -5 226 6 300
38 265 171 517 360 685 140 124 393 251 562 280 17 3 34 8 38 10 4 2 35 7 71
11 35 3 66 8 68 10 2 2 63 1 135 -1 89 -2 156 -10 208 -24z"/>
<path d="M4292 5080 c-31 -13 -99 -61 -143 -102 -46 -43 -141 -206 -222 -381
l-17 -38 50 28 c69 38 233 162 297 224 56 54 86 116 97 202 10 69 -8 88 -62
67z"/>
<path d="M3009 2284 c-22 -49 -63 -136 -91 -194 -171 -357 -286 -671 -323
-880 -13 -77 -14 -277 -1 -350 28 -154 84 -307 157 -429 22 -34 39 -65 39 -67
0 -2 -10 -4 -22 -4 -35 0 -193 -36 -283 -63 -53 -17 -79 -30 -77 -39 9 -46 88
-248 97 -248 5 0 38 9 71 19 138 44 267 63 436 66 102 1 289 -15 337 -30 9 -2
30 -7 47 -10 17 -2 62 -14 99 -26 37 -11 69 -19 71 -17 9 9 96 225 98 241 1
15 -15 24 -74 43 -78 25 -235 58 -330 69 -67 8 -120 38 -182 102 -86 88 -138
186 -184 344 -29 100 -37 233 -21 352 16 118 101 372 189 567 53 117 75 164
168 361 55 117 101 218 102 227 2 8 -4 16 -12 17 -8 2 -33 6 -55 9 -23 4 -52
8 -65 11 -14 3 -53 8 -88 11 l-62 7 -41 -89z"/>
</g>
</svg>
